<svg xmlns="http://www.w3.org/2000/svg"><rect width="30" y ="238" x ="40" height="310" style="fill:rgb(0,0,0);stroke-width:3;stroke:rgb(0,0,0)"/><text x="42" y="231" textLength = "5" fill="black">i</text><rect width="30" y ="238" x ="100" height="230" style="fill:rgb(0,0,0);stroke-width:3;stroke:rgb(0,0,0)"/><text x="102" y="231" textLength = "5" fill="black">0</text><rect width="30" y ="238" x ="160" height="190" style="fill:rgb(0,0,0);stroke-width:3;stroke:rgb(0,0,0)"/><text x="162" y="231" textLength = "25" fill="black">array</text><rect width="30" y ="238" x ="220" height="180" style="fill:rgb(0,0,0);stroke-width:3;stroke:rgb(0,0,0)"/><text x="222" y="231" textLength = "20" fill="black">char</text><rect width="30" y ="238" x ="280" height="170" style="fill:rgb(0,0,0);stroke-width:3;stroke:rgb(0,0,0)"/><text x="282" y="231" textLength = "15" fill="black">int</text><rect width="30" y ="238" x ="340" height="170" style="fill:rgb(0,0,0);stroke-width:3;stroke:rgb(0,0,0)"/><text x="342" y="231" textLength = "5" fill="black">k</text><rect width="30" y ="238" x ="400" height="110" style="fill:rgb(0,0,0);stroke-width:3;stroke:rgb(0,0,0)"/><text x="402" y="231" textLength = "30" fill="black">buffer</text><rect width="30" y ="238" x ="460" height="100" style="fill:rgb(0,0,0);stroke-width:3;stroke:rgb(0,0,0)"/><text x="462" y="231" textLength = "35" fill="black">cmdline</text><rect width="30" y ="238" x ="520" height="80" style="fill:rgb(0,0,0);stroke-width:3;stroke:rgb(0,0,0)"/><text x="522" y="231" textLength = "55" fill="black">num_of_args</text><rect width="30" y ="238" x ="580" height="70" style="fill:rgb(0,0,0);stroke-width:3;stroke:rgb(0,0,0)"/><text x="582" y="231" textLength = "5" fill="black">1</text><rect width="30" y ="238" x ="640" height="70" style="fill:rgb(0,0,0);stroke-width:3;stroke:rgb(0,0,0)"/><text x="642" y="231" textLength = "25" fill="black">const</text><rect width="30" y ="238" x ="700" height="70" style="fill:rgb(0,0,0);stroke-width:3;stroke:rgb(0,0,0)"/><text x="702" y="231" textLength = "10" fill="black">if</text><rect width="30" y ="238" x ="760" height="60" style="fill:rgb(0,0,0);stroke-width:3;stroke:rgb(0,0,0)"/><text x="762" y="231" textLength = "15" fill="black">arr</text><rect width="30" y ="238" x ="820" height="60" style="fill:rgb(0,0,0);stroke-width:3;stroke:rgb(0,0,0)"/><text x="822" y="231" textLength = "15" fill="black">for</text><rect width="30" y ="238" x ="880" height="60" style="fill:rgb(0,0,0);stroke-width:3;stroke:rgb(0,0,0)"/><text x="882" y="231" textLength = "5" fill="black">h</text><rect width="30" y ="238" x ="940" height="60" style="fill:rgb(0,0,0);stroke-width:3;stroke:rgb(0,0,0)"/><text x="942" y="231" textLength = "35" fill="black">include</text><rect width="30" y ="238" x ="1000" height="60" style="fill:rgb(0,0,0);stroke-width:3;stroke:rgb(0,0,0)"/><text x="1002" y="231" textLength = "30" fill="black">sizeof</text><rect width="30" y ="238" x ="1060" height="50" style="fill:rgb(0,0,0);stroke-width:3;stroke:rgb(0,0,0)"/><text x="1062" y="231" textLength = "30" fill="black">malloc</text><rect width="30" y ="238" x ="1120" height="50" style="fill:rgb(0,0,0);stroke-width:3;stroke:rgb(0,0,0)"/><text x="1122" y="231" textLength = "15" fill="black">pid</text><rect width="30" y ="238" x ="1180" height="50" style="fill:rgb(0,0,0);stroke-width:3;stroke:rgb(0,0,0)"/><text x="1182" y="231" textLength = "30" fill="black">status</text><rect width="30" y ="238" x ="1240" height="40" style="fill:rgb(0,0,0);stroke-width:3;stroke:rgb(0,0,0)"/><text x="1242" y="231" textLength = "35" fill="black">maximum</text><rect width="30" y ="238" x ="1300" height="40" style="fill:rgb(0,0,0);stroke-width:3;stroke:rgb(0,0,0)"/><text x="1302" y="231" textLength = "30" fill="black">return</text><rect width="30" y ="238" x ="1360" height="40" style="fill:rgb(0,0,0);stroke-width:3;stroke:rgb(0,0,0)"/><text x="1362" y="231" textLength = "30" fill="black">strtok</text><rect width="30" y ="238" x ="1420" height="30" style="fill:rgb(0,0,0);stroke-width:3;stroke:rgb(0,0,0)"/><text x="1422" y="231" textLength = "20" fill="black">1024</text><rect width="30" y ="238" x ="1480" height="30" style="fill:rgb(0,0,0);stroke-width:3;stroke:rgb(0,0,0)"/><text x="1482" y="231" textLength = "20" fill="black">else</text><rect width="30" y ="238" x ="1540" height="30" style="fill:rgb(0,0,0);stroke-width:3;stroke:rgb(0,0,0)"/><text x="1542" y="231" textLength = "25" fill="black">execv</text><rect width="30" y ="238" x ="1600" height="30" style="fill:rgb(0,0,0);stroke-width:3;stroke:rgb(0,0,0)"/><text x="1602" y="231" textLength = "40" fill="black">function</text><rect width="30" y ="238" x ="1660" height="30" style="fill:rgb(0,0,0);stroke-width:3;stroke:rgb(0,0,0)"/><text x="1662" y="231" textLength = "10" fill="black">id</text><rect width="30" y ="238" x ="1720" height="30" style="fill:rgb(0,0,0);stroke-width:3;stroke:rgb(0,0,0)"/><text x="1722" y="231" textLength = "55" fill="black">largest_arg</text><rect width="30" y ="238" x ="1780" height="30" style="fill:rgb(0,0,0);stroke-width:3;stroke:rgb(0,0,0)"/><text x="1782" y="231" textLength = "50" fill="black">parameters</text><rect width="30" y ="238" x ="1840" height="30" style="fill:rgb(0,0,0);stroke-width:3;stroke:rgb(0,0,0)"/><text x="1842" y="231" textLength = "65" fill="black">parse_cmdline</text><rect width="30" y ="238" x ="1900" height="30" style="fill:rgb(0,0,0);stroke-width:3;stroke:rgb(0,0,0)"/><text x="1902" y="231" textLength = "25" fill="black">shell</text><rect width="30" y ="238" x ="1960" height="30" style="fill:rgb(0,0,0);stroke-width:3;stroke:rgb(0,0,0)"/><text x="1962" y="231" textLength = "30" fill="black">strlen</text><rect width="30" y ="238" x ="2020" height="20" style="fill:rgb(0,0,0);stroke-width:3;stroke:rgb(0,0,0)"/><text x="2022" y="231" textLength = "5" fill="black">c</text><rect width="30" y ="238" x ="2080" height="20" style="fill:rgb(0,0,0);stroke-width:3;stroke:rgb(0,0,0)"/><text x="2082" y="231" textLength = "20" fill="black">file</text><rect width="30" y ="238" x ="2140" height="20" style="fill:rgb(0,0,0);stroke-width:3;stroke:rgb(0,0,0)"/><text x="2142" y="231" textLength = "20" fill="black">fork</text><rect width="30" y ="238" x ="2200" height="20" style="fill:rgb(0,0,0);stroke-width:3;stroke:rgb(0,0,0)"/><text x="2202" y="231" textLength = "20" fill="black">free</text><rect width="30" y ="238" x ="2260" height="20" style="fill:rgb(0,0,0);stroke-width:3;stroke:rgb(0,0,0)"/><text x="2262" y="231" textLength = "20" fill="black">name</text><rect width="30" y ="238" x ="2320" height="20" style="fill:rgb(0,0,0);stroke-width:3;stroke:rgb(0,0,0)"/><text x="2322" y="231" textLength = "20" fill="black">null</text><rect width="30" y ="238" x ="2380" height="20" style="fill:rgb(0,0,0);stroke-width:3;stroke:rgb(0,0,0)"/><text x="2382" y="231" textLength = "25" fill="black">pid_t</text><rect width="30" y ="238" x ="2440" height="20" style="fill:rgb(0,0,0);stroke-width:3;stroke:rgb(0,0,0)"/><text x="2442" y="231" textLength = "30" fill="black">printf</text><rect width="30" y ="238" x ="2500" height="20" style="fill:rgb(0,0,0);stroke-width:3;stroke:rgb(0,0,0)"/><text x="2502" y="231" textLength = "10" fill="black">rv</text><rect width="30" y ="238" x ="2560" height="20" style="fill:rgb(0,0,0);stroke-width:3;stroke:rgb(0,0,0)"/><text x="2562" y="231" textLength = "15" fill="black">sys</text><rect width="30" y ="238" x ="2620" height="20" style="fill:rgb(0,0,0);stroke-width:3;stroke:rgb(0,0,0)"/><text x="2622" y="231" textLength = "20" fill="black">temp</text><rect width="30" y ="238" x ="2680" height="20" style="fill:rgb(0,0,0);stroke-width:3;stroke:rgb(0,0,0)"/><text x="2682" y="231" textLength = "20" fill="black">test</text><rect width="30" y ="238" x ="2740" height="20" style="fill:rgb(0,0,0);stroke-width:3;stroke:rgb(0,0,0)"/><text x="2742" y="231" textLength = "25" fill="black">while</text><rect width="30" y ="238" x ="2800" height="10" style="fill:rgb(0,0,0);stroke-width:3;stroke:rgb(0,0,0)"/><text x="2802" y="231" textLength = "15" fill="black">100</text><rect width="30" y ="238" x ="2860" height="10" style="fill:rgb(0,0,0);stroke-width:3;stroke:rgb(0,0,0)"/><text x="2862" y="231" textLength = "10" fill="black">14</text><rect width="30" y ="238" x ="2920" height="10" style="fill:rgb(0,0,0);stroke-width:3;stroke:rgb(0,0,0)"/><text x="2922" y="231" textLength = "5" fill="black">2</text><rect width="30" y ="238" x ="2980" height="10" style="fill:rgb(0,0,0);stroke-width:3;stroke:rgb(0,0,0)"/><text x="2982" y="231" textLength = "20" fill="black">argc</text><rect width="30" y ="238" x ="3040" height="10" style="fill:rgb(0,0,0);stroke-width:3;stroke:rgb(0,0,0)"/><text x="3042" y="231" textLength = "20" fill="black">argv</text><rect width="30" y ="238" x ="3100" height="10" style="fill:rgb(0,0,0);stroke-width:3;stroke:rgb(0,0,0)"/><text x="3102" y="231" textLength = "25" fill="black">class</text><rect width="30" y ="238" x ="3160" height="10" style="fill:rgb(0,0,0);stroke-width:3;stroke:rgb(0,0,0)"/><text x="3162" y="231" textLength = "20" fill="black">ctrl</text><rect width="30" y ="238" x ="3220" height="10" style="fill:rgb(0,0,0);stroke-width:3;stroke:rgb(0,0,0)"/><text x="3222" y="231" textLength = "30" fill="black">failed</text><rect width="30" y ="238" x ="3280" height="10" style="fill:rgb(0,0,0);stroke-width:3;stroke:rgb(0,0,0)"/><text x="3282" y="231" textLength = "25" fill="black">fgets</text><rect width="30" y ="238" x ="3340" height="10" style="fill:rgb(0,0,0);stroke-width:3;stroke:rgb(0,0,0)"/><text x="3342" y="231" textLength = "40" fill="black">georgiev</text><rect width="30" y ="238" x ="3400" height="10" style="fill:rgb(0,0,0);stroke-width:3;stroke:rgb(0,0,0)"/><text x="3402" y="231" textLength = "25" fill="black">ignat</text><rect width="30" y ="238" x ="3460" height="10" style="fill:rgb(0,0,0);stroke-width:3;stroke:rgb(0,0,0)"/><text x="3462" y="231" textLength = "20" fill="black">main</text><rect width="30" y ="238" x ="3520" height="10" style="fill:rgb(0,0,0);stroke-width:3;stroke:rgb(0,0,0)"/><text x="3522" y="231" textLength = "5" fill="black">n</text><rect width="30" y ="238" x ="3580" height="10" style="fill:rgb(0,0,0);stroke-width:3;stroke:rgb(0,0,0)"/><text x="3582" y="231" textLength = "30" fill="black">number</text><rect width="30" y ="238" x ="3640" height="10" style="fill:rgb(0,0,0);stroke-width:3;stroke:rgb(0,0,0)"/><text x="3642" y="231" textLength = "30" fill="black">perror</text><rect width="30" y ="238" x ="3700" height="10" style="fill:rgb(0,0,0);stroke-width:3;stroke:rgb(0,0,0)"/><text x="3702" y="231" textLength = "35" fill="black">problem</text><rect width="30" y ="238" x ="3760" height="10" style="fill:rgb(0,0,0);stroke-width:3;stroke:rgb(0,0,0)"/><text x="3762" y="231" textLength = "35" fill="black">purpose</text><rect width="30" y ="238" x ="3820" height="10" style="fill:rgb(0,0,0);stroke-width:3;stroke:rgb(0,0,0)"/><text x="3822" y="231" textLength = "35" fill="black">realloc</text><rect width="30" y ="238" x ="3880" height="10" style="fill:rgb(0,0,0);stroke-width:3;stroke:rgb(0,0,0)"/><text x="3882" y="231" textLength = "25" fill="black">stdin</text><rect width="30" y ="238" x ="3940" height="10" style="fill:rgb(0,0,0);stroke-width:3;stroke:rgb(0,0,0)"/><text x="3942" y="231" textLength = "25" fill="black">stdio</text><rect width="30" y ="238" x ="4000" height="10" style="fill:rgb(0,0,0);stroke-width:3;stroke:rgb(0,0,0)"/><text x="4002" y="231" textLength = "30" fill="black">stdlib</text><rect width="30" y ="238" x ="4060" height="10" style="fill:rgb(0,0,0);stroke-width:3;stroke:rgb(0,0,0)"/><text x="4062" y="231" textLength = "30" fill="black">strdup</text><rect width="30" y ="238" x ="4120" height="10" style="fill:rgb(0,0,0);stroke-width:3;stroke:rgb(0,0,0)"/><text x="4122" y="231" textLength = "30" fill="black">string</text><rect width="30" y ="238" x ="4180" height="10" style="fill:rgb(0,0,0);stroke-width:3;stroke:rgb(0,0,0)"/><text x="4182" y="231" textLength = "10" fill="black">to</text><rect width="30" y ="238" x ="4240" height="10" style="fill:rgb(0,0,0);stroke-width:3;stroke:rgb(0,0,0)"/><text x="4242" y="231" textLength = "25" fill="black">types</text><rect width="30" y ="238" x ="4300" height="10" style="fill:rgb(0,0,0);stroke-width:3;stroke:rgb(0,0,0)"/><text x="4302" y="231" textLength = "30" fill="black">unistd</text><rect width="30" y ="238" x ="4360" height="10" style="fill:rgb(0,0,0);stroke-width:3;stroke:rgb(0,0,0)"/><text x="4362" y="231" textLength = "20" fill="black">wait</text><rect width="30" y ="238" x ="4420" height="10" style="fill:rgb(0,0,0);stroke-width:3;stroke:rgb(0,0,0)"/><text x="4422" y="231" textLength = "35" fill="black">waitpid</text><rect width="30" y ="238" x ="4480" height="10" style="fill:rgb(0,0,0);stroke-width:3;stroke:rgb(0,0,0)"/><text x="4482" y="231" textLength = "15" fill="black">xia</text></svg>